#define bullet_width 9
#define bullet_height 9
static unsigned char bullet_bits[] = {
   0x00, 0x00, 0x44, 0x00, 0xfe, 0x00, 0x44, 0x00, 0x44, 0x00, 0x44, 0x00,
   0xfe, 0x00, 0x44, 0x00, 0x00, 0x00 };
