#define close_width 9
#define close_height 9
static unsigned char close_bits[] = {
   0x48, 0x00, 0x48, 0x00, 0xfe, 0x01, 0x24, 0x00, 0x24, 0x00, 0x24, 0x00,
   0xff, 0x00, 0x12, 0x00, 0x12, 0x00 };
