#define desk_width 9
#define desk_height 9
static unsigned char desk_bits[] = {
   0xef, 0x01, 0xc7, 0x01, 0xc7, 0x01, 0x01, 0x01, 0x00, 0x00, 0x01, 0x01,
   0xc7, 0x01, 0xc7, 0x01, 0xef, 0x01 };
