#define desk_toggled_width 9
#define desk_toggled_height 9
static unsigned char desk_toggled_bits[] = {
   0xff, 0x01, 0xff, 0x01, 0xc7, 0x01, 0x83, 0x01, 0x93, 0x01, 0x83, 0x01,
   0xc7, 0x01, 0xff, 0x01, 0xff, 0x01 };
