#define max_toggled_width 9
#define max_toggled_height 9
static unsigned char max_toggled_bits[] = {
   0xff, 0x00, 0xff, 0x00, 0xff, 0x00, 0xff, 0x00, 0xff, 0x01, 0x1f, 0x01,
   0x1f, 0x01, 0x1f, 0x01, 0xf0, 0x01 };
